<svg viewBox="0 0 319 63" fill="none" xmlns="http://www.w3.org/2000/svg">
<mask id="mask0_175_5837" style="mask-type:alpha" maskUnits="userSpaceOnUse" x="0" y="0" width="319" height="63">
<path d="M0 48.1699V1.45969H28.0079V6.47739H5.65631V22.2604H25.9095V27.2781H5.65631V48.1699H0Z" fill="#ED2A87"/>
<path d="M38.4949 1.45969V48.1699H33.1123V1.45969H38.4949Z" fill="#ED2A87"/>
<path d="M44.4999 48.1699V13.1372H49.8827V48.1699H44.4999ZM47.2369 7.29848C46.1878 7.29848 45.2831 6.94115 44.5228 6.22651C43.7778 5.51187 43.4053 4.65277 43.4053 3.64923C43.4053 2.64569 43.7778 1.78661 44.5228 1.07196C45.2831 0.357321 46.1878 0 47.2369 0C48.2861 0 49.1831 0.357321 49.9283 1.07196C50.6884 1.78661 51.0686 2.64569 51.0686 3.64923C51.0686 4.65277 50.6884 5.51187 49.9283 6.22651C49.1831 6.94115 48.2861 7.29848 47.2369 7.29848Z" fill="#ED2A87"/>
<path d="M80.7021 20.9831L75.8669 22.3515C75.5628 21.5457 75.1143 20.7626 74.5212 20.0024C73.9435 19.2269 73.1528 18.5882 72.1493 18.0865C71.1457 17.5847 69.8609 17.3338 68.2947 17.3338C66.1508 17.3338 64.3642 17.8281 62.9349 18.8164C61.5208 19.7895 60.8138 21.0287 60.8138 22.534C60.8138 23.8721 61.3003 24.9289 62.2735 25.7043C63.2467 26.4798 64.7671 27.126 66.835 27.643L72.0353 28.9201C75.1675 29.6804 77.5015 30.8436 79.0372 32.4098C80.5728 33.9607 81.3408 35.9602 81.3408 38.4082C81.3408 40.4152 80.763 42.2096 79.6073 43.7909C78.467 45.3722 76.8705 46.619 74.8177 47.5313C72.765 48.4436 70.3778 48.8998 67.6561 48.8998C64.0829 48.8998 61.1254 48.1243 58.7838 46.5734C56.4423 45.0224 54.9598 42.7568 54.3364 39.7767L59.4454 38.4994C59.9319 40.3849 60.8518 41.7989 62.2051 42.7417C63.5735 43.6844 65.3601 44.1558 67.5648 44.1558C70.0737 44.1558 72.0656 43.6236 73.5406 42.5592C75.0306 41.4797 75.7757 40.1872 75.7757 38.6819C75.7757 37.4655 75.3499 36.4467 74.4985 35.6257C73.6469 34.7894 72.3393 34.166 70.5754 33.7555L64.7367 32.3869C61.5285 31.6268 59.1716 30.4483 57.6663 28.8518C56.1762 27.2401 55.4312 25.2254 55.4312 22.8078C55.4312 20.8311 55.9861 19.0825 57.0962 17.5619C58.2213 16.0414 59.7494 14.8478 61.6805 13.9812C63.6268 13.1144 65.8315 12.6811 68.2947 12.6811C71.7615 12.6811 74.4832 13.4414 76.4599 14.9618C78.4518 16.4824 79.8658 18.4895 80.7021 20.9831Z" fill="#ED2A87"/>
<path d="M95.8985 48.991C93.6785 48.991 91.664 48.5728 89.8545 47.7365C88.0451 46.8851 86.6083 45.6611 85.5438 44.0645C84.4794 42.4528 83.9473 40.5065 83.9473 38.2258C83.9473 36.2187 84.3427 34.5918 85.1333 33.345C85.924 32.0829 86.9808 31.0945 88.3036 30.3798C89.6264 29.6653 91.086 29.133 92.6826 28.7834C94.2944 28.4184 95.9137 28.1295 97.5407 27.9166C99.6694 27.643 101.395 27.4377 102.718 27.3008C104.056 27.1488 105.029 26.8979 105.637 26.5482C106.261 26.1984 106.573 25.5903 106.573 24.7236V24.5411C106.573 22.2908 105.957 20.5422 104.725 19.2954C103.509 18.0485 101.661 17.4251 99.1829 17.4251C96.6131 17.4251 94.5984 17.9877 93.1388 19.1129C91.6791 20.2381 90.6528 21.4392 90.0598 22.7165L84.9508 20.8918C85.8631 18.7631 87.0795 17.1058 88.6001 15.9198C90.1358 14.7186 91.8083 13.8823 93.6178 13.4109C95.4423 12.9244 97.2366 12.6811 99.0004 12.6811C100.126 12.6811 101.418 12.8179 102.878 13.0916C104.353 13.3501 105.774 13.8899 107.143 14.711C108.526 15.5321 109.674 16.7713 110.587 18.4286C111.499 20.0861 111.955 22.306 111.955 25.0885V48.1699H106.573V43.4259H106.299C105.934 44.1861 105.326 44.9997 104.474 45.8663C103.623 46.733 102.49 47.4705 101.076 48.0787C99.6618 48.6869 97.9361 48.991 95.8985 48.991ZM96.7197 44.1558C98.8484 44.1558 100.643 43.7376 102.102 42.9013C103.577 42.0651 104.687 40.9855 105.432 39.6626C106.192 38.3398 106.573 36.9485 106.573 35.4888V30.5623C106.345 30.8361 105.843 31.087 105.067 31.315C104.307 31.5279 103.425 31.7179 102.422 31.8851C101.433 32.0373 100.468 32.1742 99.525 32.2958C98.5975 32.4022 97.8448 32.4934 97.2671 32.5694C95.8681 32.7519 94.5604 33.0484 93.344 33.459C92.1428 33.8542 91.1697 34.4549 90.4246 35.2608C89.6949 36.0514 89.3299 37.131 89.3299 38.4994C89.3299 40.3697 90.0218 41.7838 91.4054 42.7417C92.8042 43.6844 94.5757 44.1558 96.7197 44.1558Z" fill="#ED2A87"/>
<path d="M123.309 27.0956V48.1699H117.926V13.1372H123.126V18.6111H123.582C124.404 16.832 125.65 15.4029 127.323 14.3232C128.996 13.2285 131.155 12.6811 133.8 12.6811C136.172 12.6811 138.248 13.1677 140.027 14.1408C141.806 15.0987 143.189 16.5584 144.178 18.5199C145.167 20.4662 145.661 22.9294 145.661 25.9095V48.1699H140.278V26.2746C140.278 23.5223 139.563 21.3785 138.134 19.8427C136.705 18.2919 134.743 17.5163 132.249 17.5163C130.531 17.5163 128.996 17.8888 127.642 18.6339C126.304 19.379 125.248 20.4662 124.472 21.8954C123.697 23.3247 123.309 25.0581 123.309 27.0956Z" fill="#ED2A87"/>
<path d="M156.296 1.45969V17.5163H151.278V1.45969H156.296Z" fill="#ED2A87"/>
<path d="M186.842 20.9831L182.006 22.3515C181.702 21.5457 181.254 20.7626 180.661 20.0024C180.083 19.2269 179.293 18.5882 178.289 18.0865C177.286 17.5847 176.001 17.3338 174.434 17.3338C172.291 17.3338 170.504 17.8281 169.074 18.8164C167.661 19.7895 166.953 21.0287 166.953 22.534C166.953 23.8721 167.44 24.9289 168.413 25.7043C169.386 26.4798 170.907 27.126 172.974 27.643L178.175 28.9201C181.308 29.6804 183.641 30.8436 185.177 32.4098C186.712 33.9607 187.48 35.9602 187.48 38.4082C187.48 40.4152 186.902 42.2096 185.747 43.7909C184.606 45.3722 183.01 46.619 180.957 47.5313C178.905 48.4436 176.518 48.8998 173.796 48.8998C170.222 48.8998 167.265 48.1243 164.923 46.5734C162.582 45.0224 161.099 42.7568 160.476 39.7767L165.586 38.4994C166.071 40.3849 166.992 41.7989 168.345 42.7417C169.714 43.6844 171.5 44.1558 173.705 44.1558C176.214 44.1558 178.205 43.6236 179.681 42.5592C181.17 41.4797 181.915 40.1872 181.915 38.6819C181.915 37.4655 181.49 36.4467 180.639 35.6257C179.786 34.7894 178.479 34.166 176.716 33.7555L170.876 32.3869C167.668 31.6268 165.311 30.4483 163.806 28.8518C162.315 27.2401 161.571 25.2254 161.571 22.8078C161.571 20.8311 162.125 19.0825 163.236 17.5619C164.361 16.0414 165.889 14.8478 167.82 13.9812C169.767 13.1144 171.971 12.6811 174.434 12.6811C177.901 12.6811 180.623 13.4414 182.599 14.9618C184.591 16.4824 186.006 18.4895 186.842 20.9831Z" fill="#ED2A87"/>
<path d="M206.669 48.1699V1.45969H223C226.253 1.45969 228.937 2.02227 231.051 3.14745C233.164 4.25744 234.738 5.75515 235.772 7.64058C236.806 9.51081 237.323 11.5863 237.323 13.867C237.323 15.8741 236.966 17.5316 236.251 18.8391C235.551 20.1468 234.624 21.1807 233.468 21.941C232.328 22.7013 231.089 23.2639 229.751 23.6288V24.085C231.18 24.1762 232.617 24.678 234.062 25.5903C235.506 26.5025 236.715 27.8102 237.688 29.5132C238.661 31.2161 239.148 33.2993 239.148 35.7625C239.148 38.1041 238.615 40.21 237.552 42.0803C236.487 43.9505 234.806 45.4329 232.511 46.5277C230.215 47.6225 227.227 48.1699 223.548 48.1699H206.669ZM212.325 43.1522H223.548C227.242 43.1522 229.865 42.4376 231.415 41.0083C232.982 39.5638 233.765 37.8153 233.765 35.7625C233.765 34.1812 233.362 32.7214 232.557 31.3834C231.75 30.0302 230.602 28.9506 229.113 28.1447C227.622 27.3237 225.858 26.9131 223.821 26.9131H212.325V43.1522ZM212.325 21.9866H222.817C224.52 21.9866 226.056 21.6521 227.424 20.9831C228.808 20.3141 229.903 19.3714 230.709 18.155C231.53 16.9385 231.94 15.5092 231.94 13.867C231.94 11.8144 231.225 10.0734 229.796 8.64412C228.367 7.19963 226.102 6.47739 223 6.47739H212.325V21.9866Z" fill="#ED2A87"/>
<path d="M249.24 1.45969V48.1699H243.857V1.45969H249.24Z" fill="#ED2A87"/>
<path d="M269.477 48.8998C266.316 48.8998 263.54 48.1472 261.153 46.6419C258.781 45.1366 256.926 43.0306 255.588 40.3241C254.265 37.6175 253.604 34.4549 253.604 30.8361C253.604 27.1868 254.265 24.0013 255.588 21.2796C256.926 18.5579 258.781 16.4444 261.153 14.9391C263.54 13.4338 266.316 12.6811 269.477 12.6811C272.641 12.6811 275.408 13.4338 277.78 14.9391C280.167 16.4444 282.022 18.5579 283.345 21.2796C284.683 24.0013 285.352 27.1868 285.352 30.8361C285.352 34.4549 284.683 37.6175 283.345 40.3241C282.022 43.0306 280.167 45.1366 277.78 46.6419C275.408 48.1472 272.641 48.8998 269.477 48.8998ZM269.477 44.0645C271.88 44.0645 273.857 43.4487 275.408 42.2171C276.958 40.9855 278.106 39.3662 278.852 37.3591C279.597 35.352 279.969 33.1777 279.969 30.8361C279.969 28.4945 279.597 26.3126 278.852 24.2902C278.106 22.2679 276.958 20.6335 275.408 19.3865C273.857 18.1397 271.88 17.5163 269.477 17.5163C267.076 17.5163 265.099 18.1397 263.547 19.3865C261.996 20.6335 260.848 22.2679 260.104 24.2902C259.359 26.3126 258.986 28.4945 258.986 30.8361C258.986 33.1777 259.359 35.352 260.104 37.3591C260.848 39.3662 261.996 40.9855 263.547 42.2171C265.099 43.4487 267.076 44.0645 269.477 44.0645Z" fill="#ED2A87"/>
<path d="M303.856 62.037C301.256 62.037 299.02 61.7025 297.15 61.0334C295.28 60.3797 293.722 59.513 292.474 58.4335C291.243 57.369 290.263 56.2286 289.532 55.0122L293.821 52.0016C294.306 52.6402 294.923 53.3701 295.667 54.1912C296.412 55.0274 297.432 55.7497 298.725 56.3579C300.032 56.9813 301.742 57.293 303.856 57.293C306.683 57.293 309.018 56.6088 310.858 55.2403C312.698 53.8719 313.617 51.7279 313.617 48.8086V41.6925H313.161C312.766 42.3312 312.203 43.1218 311.473 44.0645C310.759 44.992 309.725 45.8207 308.372 46.5506C307.034 47.2653 305.223 47.6225 302.943 47.6225C300.115 47.6225 297.576 46.9535 295.326 45.6154C293.09 44.2774 291.318 42.3312 290.011 39.7767C288.719 37.2222 288.072 34.1204 288.072 30.4711C288.072 26.8827 288.704 23.7581 289.966 21.0971C291.227 18.421 292.984 16.3532 295.235 14.8935C297.484 13.4185 300.085 12.6811 303.034 12.6811C305.316 12.6811 307.125 13.0612 308.463 13.8214C309.816 14.5666 310.85 15.418 311.564 16.3759C312.295 17.3187 312.857 18.0941 313.252 18.7024H313.8V13.1372H319V49.1735C319 52.1841 318.316 54.6321 316.947 56.5175C315.593 58.4182 313.77 59.8095 311.473 60.6914C309.192 61.5885 306.654 62.037 303.856 62.037ZM303.673 42.7873C305.832 42.7873 307.657 42.2932 309.147 41.3048C310.637 40.3165 311.771 38.8948 312.545 37.0397C313.321 35.1848 313.708 32.9648 313.708 30.3798C313.708 27.8559 313.328 25.6283 312.568 23.6972C311.808 21.7661 310.683 20.2533 309.192 19.1585C307.703 18.0637 305.863 17.5163 303.673 17.5163C301.393 17.5163 299.491 18.0941 297.971 19.2498C296.466 20.4053 295.333 21.9563 294.573 23.9024C293.827 25.8488 293.455 28.0079 293.455 30.3798C293.455 32.8127 293.835 34.9643 294.595 36.8345C295.371 38.6895 296.511 40.1492 298.017 41.2135C299.537 42.2627 301.423 42.7873 303.673 42.7873Z" fill="#ED2A87"/>
</mask>
<g mask="url(#mask0_175_5837)">
<path d="M318.457 0H0V61.5505H318.457V0Z" fill="#C5C5C5"/>
<path d="M323.809 9.36636H263.597V64.2266H323.809V9.36636Z" fill="#9747FF"/>
<path d="M271.371 1.91913L209.111 -6.9491L201.545 46.1646L263.806 55.0328L271.371 1.91913Z" fill="#FF47B5"/>
<path d="M204.507 -14.5132L129.991 6.42084L147.601 69.104L222.117 48.1699L204.507 -14.5132Z" fill="#2A60ED"/>
<path d="M157.781 0.584881L99.7798 -17.1814L82.9597 37.7311L140.961 55.4974L157.781 0.584881Z" fill="#2AA7ED"/>
<path d="M22.9242 33.2676L47.6675 81.448L115.073 46.8317L90.3294 -1.34873L22.9242 33.2676Z" fill="#2AED8F"/>
<path d="M60.6068 3.99493L5.68604 -15.2331L-14.8054 43.2964L40.1153 62.5244L60.6068 3.99493Z" fill="#ED2A87"/>
</g>
</svg>