<svg width="299" height="143" viewBox="0 0 299 143" fill="none" xmlns="http://www.w3.org/2000/svg">
<path opacity="0.04" d="M258.39 54.4846L295.92 82.4231L280.946 126.749L234.162 126.206L220.222 81.5436L258.39 54.4846Z" fill="#1CBF71"/>
<path opacity="0.05" d="M157.804 38.4399L199.94 64.0544L188.599 112.043L139.455 116.087L120.423 70.5976L157.804 38.4399Z" fill="#1CBF71"/>
<path opacity="0.08" d="M100.409 72.7453L124.462 101.476L104.571 133.23L68.224 124.125L65.6516 86.7434L100.409 72.7453Z" fill="#1CBF71"/>
<path opacity="0.1" d="M40.5163 10.8563L86.5512 28.5275L83.9705 77.7699L36.3407 90.5323L9.48454 49.1774L40.5163 10.8563Z" fill="#1CBF71"/>
<g opacity="0.3">
<path d="M25.0082 15.2395L32.264 22.3121L27.7796 31.3984L17.7524 29.9413L16.0395 19.9545L25.0082 15.2395Z" fill="#22BF73"/>
<path d="M33.5985 28.5985L42.1897 33.9707L39.7353 43.8015L29.6271 44.5051L25.8344 35.1091L33.5985 28.5985Z" fill="#2AA7ED"/>
<path d="M13.7016 31.87L23.7004 33.5111L25.2294 43.5276L16.1756 48.0771L9.05105 40.8723L13.7016 31.87Z" fill="#2AED8F"/>
</g>
</svg>
